<?xml version="1.0" encoding="UTF-8" standalone="no"?>
<!DOCTYPE svg PUBLIC "-//W3C//DTD SVG 1.1//EN"
 "http://www.w3.org/Graphics/SVG/1.1/DTD/svg11.dtd">
<!-- Generated by graphviz version 14.1.2 (0)
 -->
<!-- Pages: 1 -->
<svg width="2284pt" height="399pt"
 viewBox="0.00 0.00 2284.00 399.00" xmlns="http://www.w3.org/2000/svg" xmlns:xlink="http://www.w3.org/1999/xlink">
<g id="graph0" class="graph" transform="scale(1 1) rotate(0) translate(4 395.2)">
<polygon fill="white" stroke="none" points="-4,4 -4,-395.2 2279.71,-395.2 2279.71,4 -4,4"/>
<!-- 0 -->
<g id="node1" class="node">
<title>0</title>
<path fill="#78cb0e" stroke="black" d="M1234.8,-391.2C1234.8,-391.2 1195.24,-391.2 1195.24,-391.2 1189.24,-391.2 1183.24,-385.2 1183.24,-379.2 1183.24,-379.2 1183.24,-367.2 1183.24,-367.2 1183.24,-361.2 1189.24,-355.2 1195.24,-355.2 1195.24,-355.2 1234.8,-355.2 1234.8,-355.2 1240.8,-355.2 1246.8,-361.2 1246.8,-367.2 1246.8,-367.2 1246.8,-379.2 1246.8,-379.2 1246.8,-385.2 1240.8,-391.2 1234.8,-391.2"/>
<text xml:space="preserve" text-anchor="middle" x="1215.02" y="-369" font-family="Times New Roman,serif" font-size="14.00">f1169&lt;1</text>
</g>
<!-- 1 -->
<g id="node2" class="node">
<title>1</title>
<path fill="#78cb0e" stroke="black" d="M891.05,-302.4C891.05,-302.4 812.99,-302.4 812.99,-302.4 806.99,-302.4 800.99,-296.4 800.99,-290.4 800.99,-290.4 800.99,-278.4 800.99,-278.4 800.99,-272.4 806.99,-266.4 812.99,-266.4 812.99,-266.4 891.05,-266.4 891.05,-266.4 897.05,-266.4 903.05,-272.4 903.05,-278.4 903.05,-278.4 903.05,-290.4 903.05,-290.4 903.05,-296.4 897.05,-302.4 891.05,-302.4"/>
<text xml:space="preserve" text-anchor="middle" x="852.02" y="-280.2" font-family="Times New Roman,serif" font-size="14.00">f4&lt;93.6999969</text>
</g>
<!-- 0&#45;&gt;1 -->
<g id="edge1" class="edge">
<title>0&#45;&gt;1</title>
<path fill="none" stroke="#ff0000" d="M1182.8,-364.5C1122.69,-350.12 992.47,-318.98 914.54,-300.35"/>
<polygon fill="#ff0000" stroke="#ff0000" points="915.45,-296.97 904.91,-298.05 913.82,-303.78 915.45,-296.97"/>
<text xml:space="preserve" text-anchor="middle" x="1075.36" y="-324.6" font-family="Times New Roman,serif" font-size="14.00">yes</text>
</g>
<!-- 2 -->
<g id="node3" class="node">
<title>2</title>
<path fill="#78cb0e" stroke="black" d="M1452.8,-302.4C1452.8,-302.4 1413.24,-302.4 1413.24,-302.4 1407.24,-302.4 1401.24,-296.4 1401.24,-290.4 1401.24,-290.4 1401.24,-278.4 1401.24,-278.4 1401.24,-272.4 1407.24,-266.4 1413.24,-266.4 1413.24,-266.4 1452.8,-266.4 1452.8,-266.4 1458.8,-266.4 1464.8,-272.4 1464.8,-278.4 1464.8,-278.4 1464.8,-290.4 1464.8,-290.4 1464.8,-296.4 1458.8,-302.4 1452.8,-302.4"/>
<text xml:space="preserve" text-anchor="middle" x="1433.02" y="-280.2" font-family="Times New Roman,serif" font-size="14.00">f1149&lt;1</text>
</g>
<!-- 0&#45;&gt;2 -->
<g id="edge2" class="edge">
<title>0&#45;&gt;2</title>
<path fill="none" stroke="#0000ff" d="M1247.19,-359.39C1285.21,-344.25 1348.62,-319.01 1390.62,-302.28"/>
<polygon fill="#0000ff" stroke="#0000ff" points="1391.67,-305.63 1399.67,-298.68 1389.08,-299.13 1391.67,-305.63"/>
<text xml:space="preserve" text-anchor="middle" x="1375.83" y="-324.6" font-family="Times New Roman,serif" font-size="14.00">no, missing</text>
</g>
<!-- 3 -->
<g id="node4" class="node">
<title>3</title>
<path fill="#78cb0e" stroke="black" d="M442.8,-213.6C442.8,-213.6 403.24,-213.6 403.24,-213.6 397.24,-213.6 391.24,-207.6 391.24,-201.6 391.24,-201.6 391.24,-189.6 391.24,-189.6 391.24,-183.6 397.24,-177.6 403.24,-177.6 403.24,-177.6 442.8,-177.6 442.8,-177.6 448.8,-177.6 454.8,-183.6 454.8,-189.6 454.8,-189.6 454.8,-201.6 454.8,-201.6 454.8,-207.6 448.8,-213.6 442.8,-213.6"/>
<text xml:space="preserve" text-anchor="middle" x="423.02" y="-191.4" font-family="Times New Roman,serif" font-size="14.00">f1151&lt;1</text>
</g>
<!-- 1&#45;&gt;3 -->
<g id="edge3" class="edge">
<title>1&#45;&gt;3</title>
<path fill="none" stroke="#ff0000" d="M800.7,-273.02C715.38,-255.75 545.88,-221.46 466.25,-205.35"/>
<polygon fill="#ff0000" stroke="#ff0000" points="467.15,-201.96 456.65,-203.41 465.76,-208.82 467.15,-201.96"/>
<text xml:space="preserve" text-anchor="middle" x="685.27" y="-235.8" font-family="Times New Roman,serif" font-size="14.00">yes</text>
</g>
<!-- 4 -->
<g id="node5" class="node">
<title>4</title>
<path fill="#78cb0e" stroke="black" d="M871.8,-213.6C871.8,-213.6 832.24,-213.6 832.24,-213.6 826.24,-213.6 820.24,-207.6 820.24,-201.6 820.24,-201.6 820.24,-189.6 820.24,-189.6 820.24,-183.6 826.24,-177.6 832.24,-177.6 832.24,-177.6 871.8,-177.6 871.8,-177.6 877.8,-177.6 883.8,-183.6 883.8,-189.6 883.8,-189.6 883.8,-201.6 883.8,-201.6 883.8,-207.6 877.8,-213.6 871.8,-213.6"/>
<text xml:space="preserve" text-anchor="middle" x="852.02" y="-191.4" font-family="Times New Roman,serif" font-size="14.00">f1170&lt;1</text>
</g>
<!-- 1&#45;&gt;4 -->
<g id="edge4" class="edge">
<title>1&#45;&gt;4</title>
<path fill="none" stroke="#0000ff" d="M852.02,-266.25C852.02,-254.56 852.02,-238.79 852.02,-225.22"/>
<polygon fill="#0000ff" stroke="#0000ff" points="855.52,-225.52 852.02,-215.52 848.52,-225.52 855.52,-225.52"/>
<text xml:space="preserve" text-anchor="middle" x="884.3" y="-235.8" font-family="Times New Roman,serif" font-size="14.00">no, missing</text>
</g>
<!-- 5 -->
<g id="node18" class="node">
<title>5</title>
<path fill="#78cb0e" stroke="black" d="M1452.8,-213.6C1452.8,-213.6 1413.24,-213.6 1413.24,-213.6 1407.24,-213.6 1401.24,-207.6 1401.24,-201.6 1401.24,-201.6 1401.24,-189.6 1401.24,-189.6 1401.24,-183.6 1407.24,-177.6 1413.24,-177.6 1413.24,-177.6 1452.8,-177.6 1452.8,-177.6 1458.8,-177.6 1464.8,-183.6 1464.8,-189.6 1464.8,-189.6 1464.8,-201.6 1464.8,-201.6 1464.8,-207.6 1458.8,-213.6 1452.8,-213.6"/>
<text xml:space="preserve" text-anchor="middle" x="1433.02" y="-191.4" font-family="Times New Roman,serif" font-size="14.00">f1151&lt;1</text>
</g>
<!-- 2&#45;&gt;5 -->
<g id="edge17" class="edge">
<title>2&#45;&gt;5</title>
<path fill="none" stroke="#ff0000" d="M1433.02,-266.25C1433.02,-254.56 1433.02,-238.79 1433.02,-225.22"/>
<polygon fill="#ff0000" stroke="#ff0000" points="1436.52,-225.52 1433.02,-215.52 1429.52,-225.52 1436.52,-225.52"/>
<text xml:space="preserve" text-anchor="middle" x="1442.35" y="-235.8" font-family="Times New Roman,serif" font-size="14.00">yes</text>
</g>
<!-- 6 -->
<g id="node19" class="node">
<title>6</title>
<path fill="#78cb0e" stroke="black" d="M1892.8,-213.6C1892.8,-213.6 1853.24,-213.6 1853.24,-213.6 1847.24,-213.6 1841.24,-207.6 1841.24,-201.6 1841.24,-201.6 1841.24,-189.6 1841.24,-189.6 1841.24,-183.6 1847.24,-177.6 1853.24,-177.6 1853.24,-177.6 1892.8,-177.6 1892.8,-177.6 1898.8,-177.6 1904.8,-183.6 1904.8,-189.6 1904.8,-189.6 1904.8,-201.6 1904.8,-201.6 1904.8,-207.6 1898.8,-213.6 1892.8,-213.6"/>
<text xml:space="preserve" text-anchor="middle" x="1873.02" y="-191.4" font-family="Times New Roman,serif" font-size="14.00">f1151&lt;1</text>
</g>
<!-- 2&#45;&gt;6 -->
<g id="edge18" class="edge">
<title>2&#45;&gt;6</title>
<path fill="none" stroke="#0000ff" d="M1465.02,-277.09C1542.71,-261.76 1741.39,-222.57 1829.64,-205.16"/>
<polygon fill="#0000ff" stroke="#0000ff" points="1830.23,-208.61 1839.36,-203.24 1828.87,-201.74 1830.23,-208.61"/>
<text xml:space="preserve" text-anchor="middle" x="1724.71" y="-235.8" font-family="Times New Roman,serif" font-size="14.00">no, missing</text>
</g>
<!-- 7 -->
<g id="node6" class="node">
<title>7</title>
<path fill="#78cb0e" stroke="black" d="M216.3,-124.8C216.3,-124.8 183.74,-124.8 183.74,-124.8 177.74,-124.8 171.74,-118.8 171.74,-112.8 171.74,-112.8 171.74,-100.8 171.74,-100.8 171.74,-94.8 177.74,-88.8 183.74,-88.8 183.74,-88.8 216.3,-88.8 216.3,-88.8 222.3,-88.8 228.3,-94.8 228.3,-100.8 228.3,-100.8 228.3,-112.8 228.3,-112.8 228.3,-118.8 222.3,-124.8 216.3,-124.8"/>
<text xml:space="preserve" text-anchor="middle" x="200.02" y="-102.6" font-family="Times New Roman,serif" font-size="14.00">f164&lt;1</text>
</g>
<!-- 3&#45;&gt;7 -->
<g id="edge5" class="edge">
<title>3&#45;&gt;7</title>
<path fill="none" stroke="#ff0000" d="M391.07,-182.16C351.07,-166.6 282.59,-139.94 239.39,-123.13"/>
<polygon fill="#ff0000" stroke="#ff0000" points="240.72,-119.89 230.13,-119.52 238.18,-126.41 240.72,-119.89"/>
<text xml:space="preserve" text-anchor="middle" x="340.82" y="-147" font-family="Times New Roman,serif" font-size="14.00">yes</text>
</g>
<!-- 8 -->
<g id="node7" class="node">
<title>8</title>
<path fill="#78cb0e" stroke="black" d="M462.05,-124.8C462.05,-124.8 383.99,-124.8 383.99,-124.8 377.99,-124.8 371.99,-118.8 371.99,-112.8 371.99,-112.8 371.99,-100.8 371.99,-100.8 371.99,-94.8 377.99,-88.8 383.99,-88.8 383.99,-88.8 462.05,-88.8 462.05,-88.8 468.05,-88.8 474.05,-94.8 474.05,-100.8 474.05,-100.8 474.05,-112.8 474.05,-112.8 474.05,-118.8 468.05,-124.8 462.05,-124.8"/>
<text xml:space="preserve" text-anchor="middle" x="423.02" y="-102.6" font-family="Times New Roman,serif" font-size="14.00">f4&lt;34.7999992</text>
</g>
<!-- 3&#45;&gt;8 -->
<g id="edge6" class="edge">
<title>3&#45;&gt;8</title>
<path fill="none" stroke="#0000ff" d="M423.02,-177.45C423.02,-165.76 423.02,-149.99 423.02,-136.42"/>
<polygon fill="#0000ff" stroke="#0000ff" points="426.52,-136.72 423.02,-126.72 419.52,-136.72 426.52,-136.72"/>
<text xml:space="preserve" text-anchor="middle" x="455.3" y="-147" font-family="Times New Roman,serif" font-size="14.00">no, missing</text>
</g>
<!-- 9 -->
<g id="node12" class="node">
<title>9</title>
<path fill="#78cb0e" stroke="black" d="M795.02,-124.8C795.02,-124.8 765.02,-124.8 765.02,-124.8 759.02,-124.8 753.02,-118.8 753.02,-112.8 753.02,-112.8 753.02,-100.8 753.02,-100.8 753.02,-94.8 759.02,-88.8 765.02,-88.8 765.02,-88.8 795.02,-88.8 795.02,-88.8 801.02,-88.8 807.02,-94.8 807.02,-100.8 807.02,-100.8 807.02,-112.8 807.02,-112.8 807.02,-118.8 801.02,-124.8 795.02,-124.8"/>
<text xml:space="preserve" text-anchor="middle" x="780.02" y="-102.6" font-family="Times New Roman,serif" font-size="14.00">f4&lt;94</text>
</g>
<!-- 4&#45;&gt;9 -->
<g id="edge11" class="edge">
<title>4&#45;&gt;9</title>
<path fill="none" stroke="#ff0000" d="M837.79,-177.45C827.51,-165.05 813.42,-148.07 801.73,-133.98"/>
<polygon fill="#ff0000" stroke="#ff0000" points="804.5,-131.84 795.43,-126.38 799.12,-136.31 804.5,-131.84"/>
<text xml:space="preserve" text-anchor="middle" x="831.8" y="-147" font-family="Times New Roman,serif" font-size="14.00">yes</text>
</g>
<!-- 10 -->
<g id="node13" class="node">
<title>10</title>
<path fill="#78cb0e" stroke="black" d="M964.05,-124.8C964.05,-124.8 885.99,-124.8 885.99,-124.8 879.99,-124.8 873.99,-118.8 873.99,-112.8 873.99,-112.8 873.99,-100.8 873.99,-100.8 873.99,-94.8 879.99,-88.8 885.99,-88.8 885.99,-88.8 964.05,-88.8 964.05,-88.8 970.05,-88.8 976.05,-94.8 976.05,-100.8 976.05,-100.8 976.05,-112.8 976.05,-112.8 976.05,-118.8 970.05,-124.8 964.05,-124.8"/>
<text xml:space="preserve" text-anchor="middle" x="925.02" y="-102.6" font-family="Times New Roman,serif" font-size="14.00">f1&lt;35.0596962</text>
</g>
<!-- 4&#45;&gt;10 -->
<g id="edge12" class="edge">
<title>4&#45;&gt;10</title>
<path fill="none" stroke="#0000ff" d="M866.44,-177.45C876.87,-165.05 891.15,-148.07 903,-133.98"/>
<polygon fill="#0000ff" stroke="#0000ff" points="905.64,-136.27 909.4,-126.37 900.29,-131.77 905.64,-136.27"/>
<text xml:space="preserve" text-anchor="middle" x="927.34" y="-147" font-family="Times New Roman,serif" font-size="14.00">no, missing</text>
</g>
<!-- 15 -->
<g id="node8" class="node">
<title>15</title>
<path fill="#e48038" stroke="black" d="M104.04,-36C104.04,-36 12,-36 12,-36 6,-36 0,-30 0,-24 0,-24 0,-12 0,-12 0,-6 6,0 12,0 12,0 104.04,0 104.04,0 110.04,0 116.04,-6 116.04,-12 116.04,-12 116.04,-24 116.04,-24 116.04,-30 110.04,-36 104.04,-36"/>
<text xml:space="preserve" text-anchor="middle" x="58.02" y="-13.8" font-family="Times New Roman,serif" font-size="14.00">leaf=&#45;0.17730771</text>
</g>
<!-- 7&#45;&gt;15 -->
<g id="edge7" class="edge">
<title>7&#45;&gt;15</title>
<path fill="none" stroke="#ff0000" d="M171.62,-88.44C149.95,-75.2 119.88,-56.81 96.12,-42.29"/>
<polygon fill="#ff0000" stroke="#ff0000" points="98.01,-39.35 87.66,-37.12 94.36,-45.32 98.01,-39.35"/>
<text xml:space="preserve" text-anchor="middle" x="151.07" y="-58.2" font-family="Times New Roman,serif" font-size="14.00">yes</text>
</g>
<!-- 16 -->
<g id="node9" class="node">
<title>16</title>
<path fill="#e48038" stroke="black" d="M254.21,-36C254.21,-36 145.83,-36 145.83,-36 139.83,-36 133.83,-30 133.83,-24 133.83,-24 133.83,-12 133.83,-12 133.83,-6 139.83,0 145.83,0 145.83,0 254.21,0 254.21,0 260.21,0 266.21,-6 266.21,-12 266.21,-12 266.21,-24 266.21,-24 266.21,-30 260.21,-36 254.21,-36"/>
<text xml:space="preserve" text-anchor="middle" x="200.02" y="-13.8" font-family="Times New Roman,serif" font-size="14.00">leaf=0.00354964519</text>
</g>
<!-- 7&#45;&gt;16 -->
<g id="edge8" class="edge">
<title>7&#45;&gt;16</title>
<path fill="none" stroke="#0000ff" d="M200.02,-88.65C200.02,-76.96 200.02,-61.19 200.02,-47.62"/>
<polygon fill="#0000ff" stroke="#0000ff" points="203.52,-47.92 200.02,-37.92 196.52,-47.92 203.52,-47.92"/>
<text xml:space="preserve" text-anchor="middle" x="232.3" y="-58.2" font-family="Times New Roman,serif" font-size="14.00">no, missing</text>
</g>
<!-- 17 -->
<g id="node10" class="node">
<title>17</title>
<path fill="#e48038" stroke="black" d="M404.21,-36C404.21,-36 295.83,-36 295.83,-36 289.83,-36 283.83,-30 283.83,-24 283.83,-24 283.83,-12 283.83,-12 283.83,-6 289.83,0 295.83,0 295.83,0 404.21,0 404.21,0 410.21,0 416.21,-6 416.21,-12 416.21,-12 416.21,-24 416.21,-24 416.21,-30 410.21,-36 404.21,-36"/>
<text xml:space="preserve" text-anchor="middle" x="350.02" y="-13.8" font-family="Times New Roman,serif" font-size="14.00">leaf=0.00484254444</text>
</g>
<!-- 8&#45;&gt;17 -->
<g id="edge9" class="edge">
<title>8&#45;&gt;17</title>
<path fill="none" stroke="#ff0000" d="M408.6,-88.65C398.17,-76.25 383.88,-59.27 372.03,-45.18"/>
<polygon fill="#ff0000" stroke="#ff0000" points="374.75,-42.97 365.64,-37.57 369.39,-47.47 374.75,-42.97"/>
<text xml:space="preserve" text-anchor="middle" x="402.39" y="-58.2" font-family="Times New Roman,serif" font-size="14.00">yes</text>
</g>
<!-- 18 -->
<g id="node11" class="node">
<title>18</title>
<path fill="#e48038" stroke="black" d="M545.54,-36C545.54,-36 446.5,-36 446.5,-36 440.5,-36 434.5,-30 434.5,-24 434.5,-24 434.5,-12 434.5,-12 434.5,-6 440.5,0 446.5,0 446.5,0 545.54,0 545.54,0 551.54,0 557.54,-6 557.54,-12 557.54,-12 557.54,-24 557.54,-24 557.54,-30 551.54,-36 545.54,-36"/>
<text xml:space="preserve" text-anchor="middle" x="496.02" y="-13.8" font-family="Times New Roman,serif" font-size="14.00">leaf=&#45;0.105541721</text>
</g>
<!-- 8&#45;&gt;18 -->
<g id="edge10" class="edge">
<title>8&#45;&gt;18</title>
<path fill="none" stroke="#0000ff" d="M437.44,-88.65C447.87,-76.25 462.15,-59.27 474,-45.18"/>
<polygon fill="#0000ff" stroke="#0000ff" points="476.64,-47.47 480.4,-37.57 471.29,-42.97 476.64,-47.47"/>
<text xml:space="preserve" text-anchor="middle" x="498.34" y="-58.2" font-family="Times New Roman,serif" font-size="14.00">no, missing</text>
</g>
<!-- 19 -->
<g id="node14" class="node">
<title>19</title>
<path fill="#e48038" stroke="black" d="M688.71,-36C688.71,-36 587.33,-36 587.33,-36 581.33,-36 575.33,-30 575.33,-24 575.33,-24 575.33,-12 575.33,-12 575.33,-6 581.33,0 587.33,0 587.33,0 688.71,0 688.71,0 694.71,0 700.71,-6 700.71,-12 700.71,-12 700.71,-24 700.71,-24 700.71,-30 694.71,-36 688.71,-36"/>
<text xml:space="preserve" text-anchor="middle" x="638.02" y="-13.8" font-family="Times New Roman,serif" font-size="14.00">leaf=0.0200811829</text>
</g>
<!-- 9&#45;&gt;19 -->
<g id="edge13" class="edge">
<title>9&#45;&gt;19</title>
<path fill="none" stroke="#ff0000" d="M752.64,-89.06C730.82,-75.73 700.03,-56.91 675.86,-42.13"/>
<polygon fill="#ff0000" stroke="#ff0000" points="677.93,-39.3 667.58,-37.07 674.28,-45.27 677.93,-39.3"/>
<text xml:space="preserve" text-anchor="middle" x="731.07" y="-58.2" font-family="Times New Roman,serif" font-size="14.00">yes</text>
</g>
<!-- 20 -->
<g id="node15" class="node">
<title>20</title>
<path fill="#e48038" stroke="black" d="M829.54,-36C829.54,-36 730.5,-36 730.5,-36 724.5,-36 718.5,-30 718.5,-24 718.5,-24 718.5,-12 718.5,-12 718.5,-6 724.5,0 730.5,0 730.5,0 829.54,0 829.54,0 835.54,0 841.54,-6 841.54,-12 841.54,-12 841.54,-24 841.54,-24 841.54,-30 835.54,-36 829.54,-36"/>
<text xml:space="preserve" text-anchor="middle" x="780.02" y="-13.8" font-family="Times New Roman,serif" font-size="14.00">leaf=&#45;0.114196718</text>
</g>
<!-- 9&#45;&gt;20 -->
<g id="edge14" class="edge">
<title>9&#45;&gt;20</title>
<path fill="none" stroke="#0000ff" d="M780.02,-88.65C780.02,-76.96 780.02,-61.19 780.02,-47.62"/>
<polygon fill="#0000ff" stroke="#0000ff" points="783.52,-47.92 780.02,-37.92 776.52,-47.92 783.52,-47.92"/>
<text xml:space="preserve" text-anchor="middle" x="812.3" y="-58.2" font-family="Times New Roman,serif" font-size="14.00">no, missing</text>
</g>
<!-- 21 -->
<g id="node16" class="node">
<title>21</title>
<path fill="#e48038" stroke="black" d="M978.04,-36C978.04,-36 872,-36 872,-36 866,-36 860,-30 860,-24 860,-24 860,-12 860,-12 860,-6 866,0 872,0 872,0 978.04,0 978.04,0 984.04,0 990.04,-6 990.04,-12 990.04,-12 990.04,-24 990.04,-24 990.04,-30 984.04,-36 978.04,-36"/>
<text xml:space="preserve" text-anchor="middle" x="925.02" y="-13.8" font-family="Times New Roman,serif" font-size="14.00">leaf=&#45;0.0570541993</text>
</g>
<!-- 10&#45;&gt;21 -->
<g id="edge15" class="edge">
<title>10&#45;&gt;21</title>
<path fill="none" stroke="#ff0000" d="M925.02,-88.65C925.02,-76.96 925.02,-61.19 925.02,-47.62"/>
<polygon fill="#ff0000" stroke="#ff0000" points="928.52,-47.92 925.02,-37.92 921.52,-47.92 928.52,-47.92"/>
<text xml:space="preserve" text-anchor="middle" x="934.35" y="-58.2" font-family="Times New Roman,serif" font-size="14.00">yes</text>
</g>
<!-- 22 -->
<g id="node17" class="node">
<title>22</title>
<path fill="#e48038" stroke="black" d="M1121.71,-36C1121.71,-36 1020.33,-36 1020.33,-36 1014.33,-36 1008.33,-30 1008.33,-24 1008.33,-24 1008.33,-12 1008.33,-12 1008.33,-6 1014.33,0 1020.33,0 1020.33,0 1121.71,0 1121.71,0 1127.71,0 1133.71,-6 1133.71,-12 1133.71,-12 1133.71,-24 1133.71,-24 1133.71,-30 1127.71,-36 1121.71,-36"/>
<text xml:space="preserve" text-anchor="middle" x="1071.02" y="-13.8" font-family="Times New Roman,serif" font-size="14.00">leaf=0.0226226393</text>
</g>
<!-- 10&#45;&gt;22 -->
<g id="edge16" class="edge">
<title>10&#45;&gt;22</title>
<path fill="none" stroke="#0000ff" d="M954.21,-88.44C976.59,-75.14 1007.69,-56.65 1032.17,-42.09"/>
<polygon fill="#0000ff" stroke="#0000ff" points="1033.77,-45.22 1040.57,-37.1 1030.19,-39.2 1033.77,-45.22"/>
<text xml:space="preserve" text-anchor="middle" x="1043.38" y="-58.2" font-family="Times New Roman,serif" font-size="14.00">no, missing</text>
</g>
<!-- 11 -->
<g id="node20" class="node">
<title>11</title>
<path fill="#78cb0e" stroke="black" d="M1399.05,-124.8C1399.05,-124.8 1320.99,-124.8 1320.99,-124.8 1314.99,-124.8 1308.99,-118.8 1308.99,-112.8 1308.99,-112.8 1308.99,-100.8 1308.99,-100.8 1308.99,-94.8 1314.99,-88.8 1320.99,-88.8 1320.99,-88.8 1399.05,-88.8 1399.05,-88.8 1405.05,-88.8 1411.05,-94.8 1411.05,-100.8 1411.05,-100.8 1411.05,-112.8 1411.05,-112.8 1411.05,-118.8 1405.05,-124.8 1399.05,-124.8"/>
<text xml:space="preserve" text-anchor="middle" x="1360.02" y="-102.6" font-family="Times New Roman,serif" font-size="14.00">f1&lt;33.5406036</text>
</g>
<!-- 5&#45;&gt;11 -->
<g id="edge19" class="edge">
<title>5&#45;&gt;11</title>
<path fill="none" stroke="#ff0000" d="M1418.6,-177.45C1408.17,-165.05 1393.88,-148.07 1382.03,-133.98"/>
<polygon fill="#ff0000" stroke="#ff0000" points="1384.75,-131.77 1375.64,-126.37 1379.39,-136.27 1384.75,-131.77"/>
<text xml:space="preserve" text-anchor="middle" x="1412.39" y="-147" font-family="Times New Roman,serif" font-size="14.00">yes</text>
</g>
<!-- 12 -->
<g id="node21" class="node">
<title>12</title>
<path fill="#78cb0e" stroke="black" d="M1545.05,-124.8C1545.05,-124.8 1466.99,-124.8 1466.99,-124.8 1460.99,-124.8 1454.99,-118.8 1454.99,-112.8 1454.99,-112.8 1454.99,-100.8 1454.99,-100.8 1454.99,-94.8 1460.99,-88.8 1466.99,-88.8 1466.99,-88.8 1545.05,-88.8 1545.05,-88.8 1551.05,-88.8 1557.05,-94.8 1557.05,-100.8 1557.05,-100.8 1557.05,-112.8 1557.05,-112.8 1557.05,-118.8 1551.05,-124.8 1545.05,-124.8"/>
<text xml:space="preserve" text-anchor="middle" x="1506.02" y="-102.6" font-family="Times New Roman,serif" font-size="14.00">f4&lt;55.9000015</text>
</g>
<!-- 5&#45;&gt;12 -->
<g id="edge20" class="edge">
<title>5&#45;&gt;12</title>
<path fill="none" stroke="#0000ff" d="M1447.44,-177.45C1457.87,-165.05 1472.15,-148.07 1484,-133.98"/>
<polygon fill="#0000ff" stroke="#0000ff" points="1486.64,-136.27 1490.4,-126.37 1481.29,-131.77 1486.64,-136.27"/>
<text xml:space="preserve" text-anchor="middle" x="1508.34" y="-147" font-family="Times New Roman,serif" font-size="14.00">no, missing</text>
</g>
<!-- 13 -->
<g id="node26" class="node">
<title>13</title>
<path fill="#78cb0e" stroke="black" d="M1892.8,-124.8C1892.8,-124.8 1853.24,-124.8 1853.24,-124.8 1847.24,-124.8 1841.24,-118.8 1841.24,-112.8 1841.24,-112.8 1841.24,-100.8 1841.24,-100.8 1841.24,-94.8 1847.24,-88.8 1853.24,-88.8 1853.24,-88.8 1892.8,-88.8 1892.8,-88.8 1898.8,-88.8 1904.8,-94.8 1904.8,-100.8 1904.8,-100.8 1904.8,-112.8 1904.8,-112.8 1904.8,-118.8 1898.8,-124.8 1892.8,-124.8"/>
<text xml:space="preserve" text-anchor="middle" x="1873.02" y="-102.6" font-family="Times New Roman,serif" font-size="14.00">f1154&lt;1</text>
</g>
<!-- 6&#45;&gt;13 -->
<g id="edge25" class="edge">
<title>6&#45;&gt;13</title>
<path fill="none" stroke="#ff0000" d="M1873.02,-177.45C1873.02,-165.76 1873.02,-149.99 1873.02,-136.42"/>
<polygon fill="#ff0000" stroke="#ff0000" points="1876.52,-136.72 1873.02,-126.72 1869.52,-136.72 1876.52,-136.72"/>
<text xml:space="preserve" text-anchor="middle" x="1882.35" y="-147" font-family="Times New Roman,serif" font-size="14.00">yes</text>
</g>
<!-- 14 -->
<g id="node27" class="node">
<title>14</title>
<path fill="#78cb0e" stroke="black" d="M2103.8,-124.8C2103.8,-124.8 2064.24,-124.8 2064.24,-124.8 2058.24,-124.8 2052.24,-118.8 2052.24,-112.8 2052.24,-112.8 2052.24,-100.8 2052.24,-100.8 2052.24,-94.8 2058.24,-88.8 2064.24,-88.8 2064.24,-88.8 2103.8,-88.8 2103.8,-88.8 2109.8,-88.8 2115.8,-94.8 2115.8,-100.8 2115.8,-100.8 2115.8,-112.8 2115.8,-112.8 2115.8,-118.8 2109.8,-124.8 2103.8,-124.8"/>
<text xml:space="preserve" text-anchor="middle" x="2084.02" y="-102.6" font-family="Times New Roman,serif" font-size="14.00">f1176&lt;1</text>
</g>
<!-- 6&#45;&gt;14 -->
<g id="edge26" class="edge">
<title>6&#45;&gt;14</title>
<path fill="none" stroke="#0000ff" d="M1905.06,-181.42C1941.5,-166.43 2001.13,-141.9 2041.45,-125.31"/>
<polygon fill="#0000ff" stroke="#0000ff" points="2042.7,-128.58 2050.62,-121.54 2040.04,-122.11 2042.7,-128.58"/>
<text xml:space="preserve" text-anchor="middle" x="2029.7" y="-147" font-family="Times New Roman,serif" font-size="14.00">no, missing</text>
</g>
<!-- 23 -->
<g id="node22" class="node">
<title>23</title>
<path fill="#e48038" stroke="black" d="M1264.71,-36C1264.71,-36 1163.33,-36 1163.33,-36 1157.33,-36 1151.33,-30 1151.33,-24 1151.33,-24 1151.33,-12 1151.33,-12 1151.33,-6 1157.33,0 1163.33,0 1163.33,0 1264.71,0 1264.71,0 1270.71,0 1276.71,-6 1276.71,-12 1276.71,-12 1276.71,-24 1276.71,-24 1276.71,-30 1270.71,-36 1264.71,-36"/>
<text xml:space="preserve" text-anchor="middle" x="1214.02" y="-13.8" font-family="Times New Roman,serif" font-size="14.00">leaf=0.0269902702</text>
</g>
<!-- 11&#45;&gt;23 -->
<g id="edge21" class="edge">
<title>11&#45;&gt;23</title>
<path fill="none" stroke="#ff0000" d="M1330.82,-88.44C1308.44,-75.14 1277.35,-56.65 1252.86,-42.09"/>
<polygon fill="#ff0000" stroke="#ff0000" points="1254.85,-39.2 1244.46,-37.1 1251.27,-45.22 1254.85,-39.2"/>
<text xml:space="preserve" text-anchor="middle" x="1309.43" y="-58.2" font-family="Times New Roman,serif" font-size="14.00">yes</text>
</g>
<!-- 24 -->
<g id="node23" class="node">
<title>24</title>
<path fill="#e48038" stroke="black" d="M1413.04,-36C1413.04,-36 1307,-36 1307,-36 1301,-36 1295,-30 1295,-24 1295,-24 1295,-12 1295,-12 1295,-6 1301,0 1307,0 1307,0 1413.04,0 1413.04,0 1419.04,0 1425.04,-6 1425.04,-12 1425.04,-12 1425.04,-24 1425.04,-24 1425.04,-30 1419.04,-36 1413.04,-36"/>
<text xml:space="preserve" text-anchor="middle" x="1360.02" y="-13.8" font-family="Times New Roman,serif" font-size="14.00">leaf=&#45;0.0418384522</text>
</g>
<!-- 11&#45;&gt;24 -->
<g id="edge22" class="edge">
<title>11&#45;&gt;24</title>
<path fill="none" stroke="#0000ff" d="M1360.02,-88.65C1360.02,-76.96 1360.02,-61.19 1360.02,-47.62"/>
<polygon fill="#0000ff" stroke="#0000ff" points="1363.52,-47.92 1360.02,-37.92 1356.52,-47.92 1363.52,-47.92"/>
<text xml:space="preserve" text-anchor="middle" x="1392.3" y="-58.2" font-family="Times New Roman,serif" font-size="14.00">no, missing</text>
</g>
<!-- 25 -->
<g id="node24" class="node">
<title>25</title>
<path fill="#e48038" stroke="black" d="M1556.71,-36C1556.71,-36 1455.33,-36 1455.33,-36 1449.33,-36 1443.33,-30 1443.33,-24 1443.33,-24 1443.33,-12 1443.33,-12 1443.33,-6 1449.33,0 1455.33,0 1455.33,0 1556.71,0 1556.71,0 1562.71,0 1568.71,-6 1568.71,-12 1568.71,-12 1568.71,-24 1568.71,-24 1568.71,-30 1562.71,-36 1556.71,-36"/>
<text xml:space="preserve" text-anchor="middle" x="1506.02" y="-13.8" font-family="Times New Roman,serif" font-size="14.00">leaf=0.0561055802</text>
</g>
<!-- 12&#45;&gt;25 -->
<g id="edge23" class="edge">
<title>12&#45;&gt;25</title>
<path fill="none" stroke="#ff0000" d="M1506.02,-88.65C1506.02,-76.96 1506.02,-61.19 1506.02,-47.62"/>
<polygon fill="#ff0000" stroke="#ff0000" points="1509.52,-47.92 1506.02,-37.92 1502.52,-47.92 1509.52,-47.92"/>
<text xml:space="preserve" text-anchor="middle" x="1515.35" y="-58.2" font-family="Times New Roman,serif" font-size="14.00">yes</text>
</g>
<!-- 26 -->
<g id="node25" class="node">
<title>26</title>
<path fill="#e48038" stroke="black" d="M1705.04,-36C1705.04,-36 1599,-36 1599,-36 1593,-36 1587,-30 1587,-24 1587,-24 1587,-12 1587,-12 1587,-6 1593,0 1599,0 1599,0 1705.04,0 1705.04,0 1711.04,0 1717.04,-6 1717.04,-12 1717.04,-12 1717.04,-24 1717.04,-24 1717.04,-30 1711.04,-36 1705.04,-36"/>
<text xml:space="preserve" text-anchor="middle" x="1652.02" y="-13.8" font-family="Times New Roman,serif" font-size="14.00">leaf=&#45;0.0193040352</text>
</g>
<!-- 12&#45;&gt;26 -->
<g id="edge24" class="edge">
<title>12&#45;&gt;26</title>
<path fill="none" stroke="#0000ff" d="M1535.21,-88.44C1557.59,-75.14 1588.69,-56.65 1613.17,-42.09"/>
<polygon fill="#0000ff" stroke="#0000ff" points="1614.77,-45.22 1621.57,-37.1 1611.19,-39.2 1614.77,-45.22"/>
<text xml:space="preserve" text-anchor="middle" x="1624.38" y="-58.2" font-family="Times New Roman,serif" font-size="14.00">no, missing</text>
</g>
<!-- 27 -->
<g id="node28" class="node">
<title>27</title>
<path fill="#e48038" stroke="black" d="M1855.21,-36C1855.21,-36 1746.83,-36 1746.83,-36 1740.83,-36 1734.83,-30 1734.83,-24 1734.83,-24 1734.83,-12 1734.83,-12 1734.83,-6 1740.83,0 1746.83,0 1746.83,0 1855.21,0 1855.21,0 1861.21,0 1867.21,-6 1867.21,-12 1867.21,-12 1867.21,-24 1867.21,-24 1867.21,-30 1861.21,-36 1855.21,-36"/>
<text xml:space="preserve" text-anchor="middle" x="1801.02" y="-13.8" font-family="Times New Roman,serif" font-size="14.00">leaf=0.00583817065</text>
</g>
<!-- 13&#45;&gt;27 -->
<g id="edge27" class="edge">
<title>13&#45;&gt;27</title>
<path fill="none" stroke="#ff0000" d="M1858.79,-88.65C1848.51,-76.25 1834.42,-59.27 1822.73,-45.18"/>
<polygon fill="#ff0000" stroke="#ff0000" points="1825.5,-43.04 1816.43,-37.58 1820.12,-47.51 1825.5,-43.04"/>
<text xml:space="preserve" text-anchor="middle" x="1852.8" y="-58.2" font-family="Times New Roman,serif" font-size="14.00">yes</text>
</g>
<!-- 28 -->
<g id="node29" class="node">
<title>28</title>
<path fill="#e48038" stroke="black" d="M1991.21,-36C1991.21,-36 1896.83,-36 1896.83,-36 1890.83,-36 1884.83,-30 1884.83,-24 1884.83,-24 1884.83,-12 1884.83,-12 1884.83,-6 1890.83,0 1896.83,0 1896.83,0 1991.21,0 1991.21,0 1997.21,0 2003.21,-6 2003.21,-12 2003.21,-12 2003.21,-24 2003.21,-24 2003.21,-30 1997.21,-36 1991.21,-36"/>
<text xml:space="preserve" text-anchor="middle" x="1944.02" y="-13.8" font-family="Times New Roman,serif" font-size="14.00">leaf=0.071402356</text>
</g>
<!-- 13&#45;&gt;28 -->
<g id="edge28" class="edge">
<title>13&#45;&gt;28</title>
<path fill="none" stroke="#0000ff" d="M1887.05,-88.65C1897.19,-76.25 1911.08,-59.27 1922.61,-45.18"/>
<polygon fill="#0000ff" stroke="#0000ff" points="1925.2,-47.54 1928.82,-37.58 1919.78,-43.11 1925.2,-47.54"/>
<text xml:space="preserve" text-anchor="middle" x="1947.16" y="-58.2" font-family="Times New Roman,serif" font-size="14.00">no, missing</text>
</g>
<!-- 29 -->
<g id="node30" class="node">
<title>29</title>
<path fill="#e48038" stroke="black" d="M2134.71,-36C2134.71,-36 2033.33,-36 2033.33,-36 2027.33,-36 2021.33,-30 2021.33,-24 2021.33,-24 2021.33,-12 2021.33,-12 2021.33,-6 2027.33,0 2033.33,0 2033.33,0 2134.71,0 2134.71,0 2140.71,0 2146.71,-6 2146.71,-12 2146.71,-12 2146.71,-24 2146.71,-24 2146.71,-30 2140.71,-36 2134.71,-36"/>
<text xml:space="preserve" text-anchor="middle" x="2084.02" y="-13.8" font-family="Times New Roman,serif" font-size="14.00">leaf=0.0812176317</text>
</g>
<!-- 14&#45;&gt;29 -->
<g id="edge29" class="edge">
<title>14&#45;&gt;29</title>
<path fill="none" stroke="#ff0000" d="M2084.02,-88.65C2084.02,-76.96 2084.02,-61.19 2084.02,-47.62"/>
<polygon fill="#ff0000" stroke="#ff0000" points="2087.52,-47.92 2084.02,-37.92 2080.52,-47.92 2087.52,-47.92"/>
<text xml:space="preserve" text-anchor="middle" x="2093.35" y="-58.2" font-family="Times New Roman,serif" font-size="14.00">yes</text>
</g>
<!-- 30 -->
<g id="node31" class="node">
<title>30</title>
<path fill="#e48038" stroke="black" d="M2263.71,-36C2263.71,-36 2176.33,-36 2176.33,-36 2170.33,-36 2164.33,-30 2164.33,-24 2164.33,-24 2164.33,-12 2164.33,-12 2164.33,-6 2170.33,0 2176.33,0 2176.33,0 2263.71,0 2263.71,0 2269.71,0 2275.71,-6 2275.71,-12 2275.71,-12 2275.71,-24 2275.71,-24 2275.71,-30 2269.71,-36 2263.71,-36"/>
<text xml:space="preserve" text-anchor="middle" x="2220.02" y="-13.8" font-family="Times New Roman,serif" font-size="14.00">leaf=0.12633495</text>
</g>
<!-- 14&#45;&gt;30 -->
<g id="edge30" class="edge">
<title>14&#45;&gt;30</title>
<path fill="none" stroke="#0000ff" d="M2111.21,-88.44C2131.88,-75.26 2160.51,-56.98 2183.22,-42.48"/>
<polygon fill="#0000ff" stroke="#0000ff" points="2185.05,-45.47 2191.6,-37.14 2181.28,-39.57 2185.05,-45.47"/>
<text xml:space="preserve" text-anchor="middle" x="2196.48" y="-58.2" font-family="Times New Roman,serif" font-size="14.00">no, missing</text>
</g>
</g>
</svg>
